<?xml version="1.0" standalone="no"?>
<!DOCTYPE svg PUBLIC "-//W3C//DTD SVG 20010904//EN"
 "http://www.w3.org/TR/2001/REC-SVG-20010904/DTD/svg10.dtd">
<svg version="1.0" xmlns="http://www.w3.org/2000/svg"
 width="900.000000pt" height="900.000000pt" viewBox="0 0 900.000000 900.000000"
 preserveAspectRatio="xMidYMid meet">
<metadata>
Created by potrace 1.16, written by Peter Selinger 2001-2019
</metadata>
<g transform="translate(0.000000,900.000000) scale(0.100000,-0.100000)"
fill="#000000" stroke="none">
<path d="M0 4500 l0 -4500 4500 0 4500 0 0 4500 0 4500 -4500 0 -4500 0 0
-4500z m750 -30 l0 -660 -172 2 -173 3 -3 645 c-1 355 0 651 3 658 3 9 48 12
175 12 l170 0 0 -660z m575 350 l310 -309 5 307 5 307 170 0 170 0 3 -657 2
-658 -72 0 -73 0 -307 307 -308 308 0 -308 0 -307 -175 0 -175 0 0 653 c0 360
3 657 7 660 3 4 34 7 67 7 l61 0 310 -310z m1143 73 l2 -233 205 0 205 0 0
235 0 235 173 -2 172 -3 3 -657 2 -658 -175 0 -175 0 0 250 0 250 -205 0 -205
0 0 -250 0 -250 -175 0 -175 0 0 653 c0 360 3 657 7 661 4 3 81 5 172 4 l166
-3 3 -232z m1729 -113 c186 -396 236 -500 328 -695 37 -77 74 -157 82 -177 18
-45 28 -47 41 -10 5 15 75 167 155 337 172 369 216 464 265 570 20 43 62 133
93 200 l56 120 79 3 80 3 36 -78 c20 -43 147 -314 283 -603 291 -619 295 -627
295 -634 0 -3 -78 -6 -172 -6 l-173 0 -39 85 -39 85 -267 0 -268 0 -38 -85
-38 -85 -327 0 -326 0 -39 85 -39 85 -269 -2 -269 -3 -36 -82 -35 -83 -173 0
c-95 0 -173 4 -173 8 0 5 38 89 84 188 46 98 161 346 256 549 95 204 194 416
221 473 l48 103 78 -3 78 -3 162 -345z m2508 334 c154 -40 269 -165 296 -323
13 -74 -1 -153 -41 -234 l-30 -61 33 -35 c142 -150 142 -370 1 -522 -27 -28
-68 -62 -92 -76 -80 -47 -130 -53 -494 -53 l-338 0 0 660 0 660 303 0 c241 0
315 -3 362 -16z m780 -644 l0 -655 -172 -3 -173 -2 0 660 0 660 173 -2 172 -3
0 -655z m1135 485 l0 -175 -170 0 -170 0 -2 -482 -3 -483 -175 0 -175 0 -3
482 -2 483 -168 2 -167 3 -3 160 c-1 87 0 165 2 172 4 10 109 13 521 13 l515
0 0 -175z"/>
<path d="M3894 4418 l-61 -133 120 -3 c66 -1 121 -1 124 1 2 2 -5 24 -16 48
-33 77 -100 219 -103 219 -2 0 -31 -60 -64 -132z"/>
<path d="M5233 4415 l-61 -135 125 0 124 0 -7 23 c-9 28 -112 247 -116 247 -2
-1 -31 -61 -65 -135z"/>
<path d="M6390 4724 l0 -116 98 4 c70 3 104 9 123 21 71 47 62 154 -15 191
-23 11 -61 16 -120 16 l-86 0 0 -116z"/>
<path d="M6390 4209 l0 -111 134 4 c134 3 135 3 165 32 26 25 31 37 31 75 -1
49 -10 67 -50 94 -20 14 -48 17 -152 17 l-128 0 0 -111z"/>
</g>
</svg>
