<svg xmlns="http://www.w3.org/2000/svg" viewBox="0 0 223.4 55.05"><title>Meituan logo</title><path d="M416.18,484.48h23.29c5.52,0,7.52.57,9.54,1.65a11.27,11.27,0,0,1,4.68,4.68c1.08,2,1.65,4,1.65,9.54v23.29c0,5.52-.57,7.52-1.65,9.54a11.26,11.26,0,0,1-4.68,4.68c-2,1.08-4,1.66-9.54,1.66H416.18c-5.52,0-7.52-.57-9.54-1.66a11.26,11.26,0,0,1-4.68-4.68c-1.08-2-1.65-4-1.65-9.54V500.35c0-5.52.57-7.52,1.65-9.54a11.26,11.26,0,0,1,4.68-4.68c2-1.08,4-1.65,9.54-1.65" transform="translate(-400.3 -484.48)" style="fill:#fcb813;fill-rule:evenodd"/><path d="M426.17,516.8v-2h-8.61v-1.68h8.18V511h-8.18v-1.68h8.18v-2.12h-8.18V505.5h8.61v-2h-2.74v-1.66h-2.19l-.51,1.66h-8.82l-.51-1.66h-2.19v1.66h-2.74v2h8.61v1.68H406.9v2.12h8.18V511H406.9v2.12h8.18v1.68h-8.61v2h7.88c-1.88,2.13-5.18,3.14-7.88,3.15v2.2a13.72,13.72,0,0,0,6.92-1.79,10,10,0,0,0,2.93-2.56,10,10,0,0,0,2.93,2.56,13.73,13.73,0,0,0,6.92,1.79V520c-2.7,0-6-1-7.89-3.15Zm7.83,1.57h2.61a30.35,30.35,0,0,0,2.68-8.83h2.39v4.37a22.19,22.19,0,0,1-.45,4.46h2.29a22.62,22.62,0,0,0,.44-4.46v-4.37h1.55v-2.08H444v-1.8h-2.28v1.8h-8.45v2.08H437a28.79,28.79,0,0,1-3,8.83m-4.51-16.21v20h17.3a2.39,2.39,0,0,0,2.39-2.39V502.16ZM447,519.43a.54.54,0,0,1-.54.54H431.65V504.32H447Z" transform="translate(-400.3 -484.48)"/><path d="M532.11,496.36a2.89,2.89,0,1,0,2.27,2.26,2.89,2.89,0,0,0-2.27-2.26" transform="translate(-400.3 -484.48)" style="fill:#231f20"/><rect x="129" y="21.11" width="4.5" height="21.42" style="fill:#231f20"/><path d="M515,505.15c-5.5,0-10.74,4-10.74,11.22a11.09,11.09,0,0,0,11.4,11.32,14.58,14.58,0,0,0,8.74-2.78v-4.34c-1.62,1.17-4.78,3-7.73,3-4.55,0-7.6-2.27-7.82-6.26H525c.58-3.91-1-12.14-9.94-12.14m-5.9,8.44c.42-2.14,2.81-4.19,5.91-4.19s5.18,2.11,5.36,4.19Z" transform="translate(-400.3 -484.48)" style="fill:#231f20"/><path d="M546.19,499.87h-4.5v5.73h-3.84V510h3.84v11.26c0,4,2.72,6.44,7.1,6.44a26.92,26.92,0,0,0,4.84-.33v-4.21a22.32,22.32,0,0,1-5.78.16,2.29,2.29,0,0,1-1.67-2.11V510h7.44V505.6h-7.44Z" transform="translate(-400.3 -484.48)" style="fill:#231f20"/><path d="M590.16,505.17a17.8,17.8,0,0,0-7.69,1.9v4.75a14.92,14.92,0,0,1,7.58-2.42c3.93,0,5.23,2.51,5.23,4.25v.17a12.17,12.17,0,0,0-5.26-1.05c-5.29,0-9.17,3-9.17,7.64,0,4.48,4.06,7.29,8.09,7.29a7.76,7.76,0,0,0,6.33-3.05V527h4.43V513.82c0-5.33-3.72-8.65-9.53-8.65m.54,18.2c-2.74.66-5.21-.72-5.21-3s2.54-3.77,5.18-3.77a7.32,7.32,0,0,1,4.59,1.24v.47c0,1.51-1.09,4.15-4.56,5" transform="translate(-400.3 -484.48)" style="fill:#231f20"/><path d="M572.32,517.62c0,3.86-1.85,5.76-4.93,6a4.79,4.79,0,0,1-5.22-4.79h0V505.61h-4.51v13.45a8.37,8.37,0,0,0,8.72,8.64,7.09,7.09,0,0,0,5.94-3V527h4.5V505.61h-4.5Z" transform="translate(-400.3 -484.48)" style="fill:#231f20"/><path d="M615,505.18a7.07,7.07,0,0,0-5.93,3v-2.57h-4.51V527h4.51V515.26c0-3.87,1.84-5.74,4.91-6a4.77,4.77,0,0,1,5.23,4.89V527h4.5V513.81a8.36,8.36,0,0,0-8.72-8.63" transform="translate(-400.3 -484.48)" style="fill:#231f20"/><polygon points="84.83 25.94 74.63 11.82 69.7 11.82 69.7 42.53 74.2 42.53 74.2 21.66 74.12 19 83.44 31.9 86.22 31.9 95.53 19 95.46 21.66 95.46 42.53 99.95 42.53 99.95 11.82 95.03 11.82 84.83 25.94" style="fill:#231f20"/></svg>